<svg aria-hidden="true" style="position: absolute; width: 0; height: 0; overflow: hidden;" version="1.1" xmlns="http://www.w3.org/2000/svg" xmlns:xlink="http://www.w3.org/1999/xlink">
<defs>
<symbol id="antenna" viewBox="0 0 32 32" class="icon-antena">
<path fill="#212121" style="fill: var(--color1, #212121)" d="M30.776 22.1l-8.444-8.506 0.937-4.616c0.225 0.090 0.485 0.144 0.758 0.146h0.007c0.008 0 0.017 0 0.026 0 1.193 0 2.159-0.967 2.159-2.159s-0.967-2.159-2.159-2.159c-1.193 0-2.159 0.967-2.159 2.159 0 0.259 0.046 0.508 0.13 0.739l-0.005-0.015-4.96 0.606-8.091-8.134c-0.096-0.098-0.229-0.159-0.377-0.16h-0c-0.14 0.001-0.274 0.057-0.374 0.155l-1.512 1.504c-0.096 0.097-0.156 0.23-0.156 0.377s0.060 0.281 0.156 0.377v0l0.814 0.825c-1.143 2.062-1.816 4.523-1.816 7.14 0 4.106 1.656 7.825 4.336 10.526l-0.001-0.001c0.043 0.041 0.092 0.074 0.146 0.097-0.032 0.164-0.051 0.353-0.052 0.546v6.189h-6.401c-1.472 0.001-2.666 1.194-2.668 2.667v1.067c0 0.295 0.239 0.534 0.534 0.534h24.536c0.294 0 0.533-0.239 0.533-0.534v-1.067c-0.002-1.472-1.195-2.665-2.667-2.667h-6.401v-2.742c1.003 0.21 2.024 0.317 3.049 0.32 2.58-0.003 5.005-0.663 7.118-1.822l-0.077 0.039 0.818 0.823c0.099 0.101 0.235 0.159 0.376 0.16 0.14-0.001 0.274-0.057 0.374-0.155l1.512-1.504c0.096-0.097 0.156-0.23 0.156-0.377s-0.060-0.281-0.156-0.377v0zM23.282 6.234c0.193-0.192 0.459-0.31 0.752-0.31 0.589 0 1.067 0.478 1.067 1.067s-0.478 1.067-1.067 1.067c-0 0-0 0-0 0h-0.004c-0.587-0.003-1.061-0.479-1.061-1.067 0-0.296 0.12-0.563 0.314-0.756l0-0h-0.002zM22.026 9.738l-0.598 2.946-1.175-1.183 1.774-1.763zM21.421 8.836l-1.92 1.909-1.486-1.494 3.406-0.416zM24.006 28.803c0.884 0 1.6 0.716 1.6 1.6v0 0.534h-23.469v-0.534c0-0.884 0.716-1.6 1.6-1.6v0h20.268zM16.539 26.669v1.067h-5.334v-1.067h5.334zM11.205 25.602v-4.054c0-1.294 1.196-2.347 2.667-2.347s2.667 1.053 2.667 2.347v4.054h-5.334zM17.606 23.906v-2.358c0-1.882-1.675-3.413-3.734-3.413-0.017-0-0.038-0-0.058-0-1.353 0-2.54 0.707-3.214 1.771l-0.009 0.016c-2.36-2.482-3.812-5.847-3.812-9.551 0-2.314 0.567-4.496 1.569-6.415l-0.036 0.077 18.604 18.71c-1.823 0.947-3.98 1.502-6.267 1.502-1.079 0-2.129-0.124-3.136-0.357l0.093 0.018zM28.896 23.222l-21.059-21.183 0.754-0.752 7.936 7.981c0.004 0 0.006 0.007 0.010 0.010l13.116 13.193-0.757 0.752z"></path>
<path fill="#2196f3" style="fill: var(--color2, #2196f3)" d="M13.877 20.268h-0.005c-0.001 0-0.002 0-0.002 0-0.884 0-1.6 0.716-1.6 1.6s0.715 1.599 1.598 1.6h0.005c0.001 0 0.001 0 0.002 0 0.884 0 1.6-0.716 1.6-1.6s-0.715-1.599-1.598-1.6h-0zM14.25 22.247c-0.096 0.096-0.23 0.155-0.376 0.155-0.295 0-0.534-0.239-0.534-0.534s0.238-0.533 0.532-0.534h0c0.293 0.001 0.531 0.239 0.531 0.533 0 0.148-0.060 0.282-0.157 0.378l-0 0h0.005z"></path>
</symbol>
<symbol id="astronaut" viewBox="0 0 32 32">
<path fill="#2196f3" style="fill: var(--color2, #2196f3)" d="M31.977 4.524c-0.064-0.191-0.227-0.332-0.427-0.362l-0.003-0-1.911-0.278-0.855-1.731c-0.179-0.365-0.777-0.365-0.956 0l-0.855 1.731-1.911 0.278c-0.26 0.039-0.457 0.26-0.457 0.528 0 0.15 0.062 0.285 0.161 0.382l1.384 1.348-0.326 1.903c-0.034 0.2 0.048 0.402 0.212 0.522 0.166 0.12 0.382 0.135 0.562 0.040l1.709-0.899 1.709 0.899c0.072 0.038 0.157 0.061 0.248 0.061 0.295 0 0.534-0.239 0.534-0.534 0-0.031-0.003-0.062-0.008-0.092l0 0.003-0.326-1.903 1.383-1.348c0.099-0.097 0.16-0.232 0.16-0.382 0-0.059-0.010-0.116-0.027-0.169l0.001 0.004zM29.514 5.852c-0.125 0.122-0.183 0.299-0.153 0.472l0.191 1.114-1.001-0.526c-0.072-0.039-0.158-0.061-0.248-0.061s-0.176 0.023-0.251 0.063l0.003-0.001-1.001 0.526 0.192-1.114c0.005-0.027 0.008-0.058 0.008-0.090 0-0.15-0.062-0.285-0.161-0.382l-0.811-0.79 1.119-0.162c0.174-0.025 0.324-0.134 0.402-0.292l0.5-1.013 0.501 1.013c0.078 0.158 0.228 0.267 0.402 0.292l1.119 0.162-0.809 0.79zM26.136 20.524h-1.067v1.067h1.067v-1.067zM26.136 22.658h-1.067v1.066h1.067v-1.066zM27.203 21.591h-1.067v1.067h1.067v-1.067z"></path>
<path fill="#2196f3" style="fill: var(--color2, #2196f3)" d="M25.069 21.591h-1.067v1.067h1.067v-1.067zM22.402 26.392h-1.067v1.067h1.067v-1.067zM22.402 28.525h-1.067v1.067h1.067v-1.067zM23.469 27.459h-1.067v1.067h1.067v-1.067zM21.336 27.459h-1.067v1.067h1.067v-1.067zM16.002 24.258h-1.067v1.067h1.067v-1.067zM16.002 26.392h-1.067v1.067h1.067v-1.067zM17.068 25.325h-1.067v1.067h1.067v-1.067zM14.934 25.325h-1.067v1.067h1.067v-1.067zM5.867 6.123h-1.067v1.067h1.067v-1.067zM5.867 8.256h-1.067v1.067h1.067v-1.066zM6.934 7.189h-1.067v1.067h1.067v-1.067zM4.8 7.189h-1.068v1.067h1.067v-1.067z"></path>
<path fill="#212121" style="fill: var(--color1, #212121)" d="M24.717 14.161c-0.28-0.376-0.699-0.636-1.179-0.703l-0.009-0.001c-0.076-0.012-0.164-0.018-0.254-0.018-0.411 0-0.789 0.139-1.090 0.373l0.004-0.003-1.253 0.96-1.898 1.417-1.358-0.541c2.421-1.086 4.114-3.508 4.114-6.321 0-3.823-3.123-6.934-6.962-6.934s-6.962 3.111-6.962 6.934c0 1.386 0.415 2.675 1.12 3.759l-2.769-0.024c-0.009 0-0.016 0.005-0.023 0.005-0.057 0.003-0.11 0.014-0.159 0.033l0.004-0.001c-0.013 0.005-0.026 0.007-0.038 0.013-0.006 0.003-0.013 0.003-0.019 0.006l-3.233 1.596c-0 0-0.001 0-0.001 0.001l-1.893 0.91c-0.024 0.011-0.045 0.023-0.065 0.036l0.001-0.001c-0.482 0.324-0.795 0.867-0.795 1.483 0 0.297 0.073 0.577 0.201 0.823l-0.005-0.010c0.22 0.424 0.593 0.742 1.044 0.885l0.013 0.003c0.161 0.053 0.345 0.083 0.537 0.083 0.308 0 0.598-0.078 0.851-0.216l-0.009 0.005 1.388-0.738 2.264-1.169 1.357-0.008-5.442 5.416c0 0.001-0.001 0.001-0.001 0.001l-1.339 1.333c-0.303 0.299-0.49 0.714-0.49 1.173 0 0.002 0 0.004 0 0.005v-0c0 0.444 0.174 0.863 0.49 1.179 0.301 0.3 0.717 0.486 1.176 0.486 0.001 0 0.002 0 0.004 0h-0c0.428 0 0.854-0.162 1.18-0.486l1.314-1.309 1.741-1.3 0.901 0.897-3.102 3.089c-0.303 0.299-0.491 0.714-0.491 1.174 0 0.001 0 0.003 0 0.004v-0c0 0.445 0.174 0.864 0.491 1.179 0.302 0.3 0.717 0.485 1.176 0.485 0.001 0 0.002 0 0.003 0h-0c0.427 0 0.855-0.162 1.18-0.485l4.489-4.473c0.007-0.006 0.016-0.009 0.022-0.016l5.166-5.659 3.471 0.494c0.025 0.004 0.050 0.006 0.075 0.006 0.065 0 0.127-0.016 0.187-0.038 0.018-0.006 0.033-0.015 0.050-0.023 0.019-0.010 0.039-0.015 0.058-0.027l3.214-2.133c0.012-0.008 0.018-0.021 0.029-0.030 0.013-0.010 0.029-0.014 0.041-0.026l1.271-1.191c0.348-0.326 0.564-0.787 0.564-1.3 0-0.4-0.132-0.769-0.355-1.067l0.003 0.005zM2.131 17.772c-0.098 0.054-0.215 0.086-0.34 0.086-0.078 0-0.153-0.013-0.224-0.036l0.005 0.001c-0.294-0.093-0.504-0.364-0.504-0.683 0-0.235 0.114-0.444 0.289-0.575l0.002-0.001 1.314-0.632 0.316 0.924 0.133 0.389-0.992 0.527zM5.628 15.944l-1.548 0.8-0.255-0.747-0.184-0.537 2.027-1.001-0.040 1.484zM20.729 9.323c0 0.918-0.219 1.785-0.599 2.56l-4.182-1.9c-0.044-0.575-0.342-1.072-0.782-1.384l-0.006-0.004 1.463-4.861c2.378 0.757 4.106 2.975 4.106 5.589zM8.939 9.323c0-3.235 2.644-5.868 5.895-5.868 0.253 0 0.5 0.022 0.745 0.053l-1.432 4.753c-0.019 0-0.037-0.006-0.057-0.006-0 0-0.001 0-0.001 0-1.032 0-1.869 0.835-1.872 1.867v0c0.003 1.032 0.84 1.867 1.872 1.867 0 0 0.001 0 0.001 0h-0c0.695 0 1.295-0.383 1.618-0.945l3.863 1.755c-1.075 1.447-2.795 2.39-4.737 2.39-3.251 0-5.895-2.632-5.895-5.867zM14.896 10.123c0 0.441-0.362 0.8-0.806 0.8-0 0-0.001 0-0.001 0-0.443 0-0.802-0.358-0.804-0.8v-0c0-0.441 0.361-0.8 0.806-0.8s0.806 0.359 0.806 0.8zM2.465 25.148c-0.11 0.109-0.261 0.176-0.428 0.176s-0.317-0.067-0.427-0.175l0 0c-0.109-0.108-0.176-0.257-0.176-0.422s0.067-0.314 0.176-0.422l0-0 0.962-0.959 0.852 0.848-0.959 0.955zM5.679 28.882c-0.11 0.109-0.261 0.176-0.428 0.176s-0.317-0.067-0.427-0.175l0 0c-0.109-0.108-0.176-0.257-0.176-0.422s0.067-0.315 0.176-0.422l0-0 0.963-0.959 0.852 0.848-0.96 0.956zM9.161 25.413l-0.001 0.001-1.765 1.76-0.852-0.848 1.765-1.757c0.040-0.040 0.065-0.088 0.090-0.136 0.007-0.014 0.020-0.026 0.026-0.040 0.016-0.041 0.019-0.085 0.026-0.128 0.003-0.025 0.014-0.048 0.014-0.073 0-0.035-0.013-0.070-0.020-0.105-0.006-0.032-0.006-0.064-0.019-0.096-0.025-0.053-0.055-0.098-0.092-0.138l0 0c-0.010-0.012-0.014-0.027-0.025-0.038h-0.001s0-0.001-0.001-0.002l-1.607-1.6c-0.017-0.017-0.039-0.024-0.058-0.038-0.025-0.021-0.054-0.040-0.084-0.056l-0.003-0.001c-0.027-0.012-0.058-0.023-0.090-0.031l-0.003-0.001c-0.030-0.009-0.065-0.017-0.101-0.020l-0.002-0c-0.007-0-0.015-0-0.023-0-0.026 0-0.051 0.002-0.075 0.005l0.003-0c-0.036 0.005-0.069 0.009-0.104 0.021s-0.064 0.027-0.095 0.045c-0.020 0.011-0.042 0.015-0.061 0.029l-1.773 1.324-0.901-0.897 2.399-2.386 4.362 4.289-0.928 0.919zM15.98 18.396c-0.015-0.002-0.030 0.004-0.045 0.003-0.008-0-0.017-0.001-0.027-0.001-0.031 0-0.062 0.003-0.092 0.008l0.003-0c-0.030 0.006-0.059 0.011-0.088 0.021-0.037 0.013-0.069 0.029-0.098 0.048l0.002-0.001c-0.031 0.019-0.059 0.039-0.084 0.062l0-0c-0.013 0.011-0.028 0.016-0.040 0.029l-4.698 5.146-4.329-4.257 2.833-2.819c0.096-0.097 0.156-0.23 0.156-0.377 0-0.295-0.239-0.534-0.534-0.534-0.001 0-0.001 0-0.002 0h0l-2.219 0.013 0.028-1.607 3.104 0.027c1.264 1.297 3.027 2.101 4.979 2.101 0.001 0 0.002 0 0.003 0h-0c0.438 0 0.864-0.046 1.28-0.123 0.040 0.032 0.080 0.064 0.129 0.085l2.41 0.96 0.152 0.758 0.178 0.886-3.003-0.427zM20.022 18.574l-0.313-1.558 1.447-1.080 0.946 1.257-2.080 1.382zM23.776 15.743l-0.838 0.785-0.931-1.236 0.831-0.637c0.155-0.119 0.351-0.168 0.543-0.143 0.193 0.027 0.364 0.128 0.48 0.284 0.088 0.117 0.141 0.265 0.141 0.426 0 0.206-0.087 0.391-0.226 0.521l-0 0z"></path>
<path fill="#212121" style="fill: var(--color1, #212121)" d="M13.604 18.546l-2.143-2.134c-0.096-0.096-0.229-0.156-0.376-0.156s-0.28 0.059-0.376 0.156v0l-2.143 2.134c-0.097 0.097-0.156 0.231-0.156 0.378s0.060 0.281 0.156 0.378l-0-0 2.143 2.134c0.096 0.096 0.229 0.156 0.376 0.156s0.28-0.059 0.376-0.156v0l2.143-2.134c0.097-0.097 0.157-0.23 0.157-0.378s-0.060-0.281-0.157-0.378l-0-0zM11.085 20.305l-1.387-1.381 1.387-1.381 1.388 1.381-1.388 1.381zM17.166 5.071l-0.258 1.036c0.071 0.018 1.738 0.452 1.738 2.149h1.067c0-2.017-1.666-2.965-2.547-3.185zM19.713 9.323h-1.067v1.067h1.067v-1.067z"></path>
</symbol>
<symbol id="clock" viewBox="0 0 32 32">
<path fill="#212121" style="fill: var(--color1, #212121)" d="M31.299 15.303c-0.001-8.453-6.855-15.304-15.309-15.303s-15.304 6.856-15.303 15.309c0.002 6.788 4.422 12.544 10.542 14.546l0.108 0.031c0.061 0.019 0.123 0.029 0.187 0.029 0.12 0 0.238-0.032 0.342-0.094 0.135-0.080 0.236-0.207 0.283-0.357l3.865-12.251c1.054-0.004 1.906-0.859 1.906-1.913 0-1.056-0.856-1.913-1.913-1.913-0.303 0-0.59 0.071-0.845 0.196l0.011-0.005-5.106-5.107c-0.115-0.11-0.271-0.179-0.443-0.179-0.352 0-0.638 0.286-0.638 0.638 0 0.172 0.068 0.328 0.179 0.443l-0-0 5.104 5.11c-0.121 0.241-0.191 0.525-0.191 0.826 0 0.602 0.283 1.137 0.723 1.481l0.004 0.003-3.683 11.674c-7.278-2.681-11.005-10.755-8.324-18.034s10.755-11.005 18.034-8.324c7.278 2.681 11.005 10.755 8.324 18.033-1.345 3.582-4.004 6.407-7.375 7.939l-0.088 0.036-0.398-1.874c-0.063-0.291-0.318-0.506-0.624-0.506-0.164 0-0.313 0.062-0.426 0.163l0.001-0.001-3.837 3.426c-0.132 0.117-0.214 0.287-0.214 0.477 0 0.283 0.185 0.524 0.441 0.606l0.005 0.001 4.899 1.564c0.058 0.020 0.126 0.031 0.196 0.031 0.352 0 0.637-0.285 0.637-0.637 0-0.047-0.005-0.093-0.015-0.138l0.001 0.004-0.391-1.839c5.528-2.375 9.329-7.772 9.329-14.058 0-0.011 0-0.023-0-0.034v0.002zM15.994 14.665c0.352 0 0.638 0.286 0.638 0.638s-0.286 0.638-0.638 0.638v0c-0.352 0-0.638-0.286-0.638-0.638s0.286-0.638 0.638-0.638v0zM18.094 29.531l2.184-1.949 0.603 2.84-2.787-0.892z"></path>
<path fill="#2196f3" style="fill: var(--color2, #2196f3)" d="M15.356 3.185v1.276c0 0.352 0.286 0.638 0.638 0.638s0.638-0.286 0.638-0.638v0-1.276c0-0.352-0.286-0.638-0.638-0.638s-0.638 0.286-0.638 0.638v0zM3.877 14.665c-0.352 0-0.638 0.286-0.638 0.638s0.286 0.638 0.638 0.638h1.276c0.352 0 0.638-0.286 0.638-0.638s-0.286-0.638-0.638-0.638h-1.276zM28.111 15.941c0.352 0 0.638-0.286 0.638-0.638s-0.286-0.638-0.638-0.638h-1.276c-0.352 0-0.638 0.286-0.638 0.638s0.286 0.638 0.638 0.638h1.276z"></path>
</symbol>
<symbol id="diagram" viewBox="0 0 32 32">
<path fill="#2196f3" style="fill: var(--color2, #2196f3)" d="M14.927 14.966h1.066v4.798h-1.066v-4.798zM19.192 17.099h1.066v2.665h-1.066v-2.665zM10.662 18.698h1.066v1.066h-1.066v-1.066zM7.464 18.165h1.066v1.599h-1.066v-1.599z"></path>
<path fill="#212121" style="fill: var(--color1, #212121)" d="M1.599 28.293h25.589c0 0 0 0 0 0 0.883 0 1.599-0.716 1.599-1.599v0-2.132c0-0.883-0.716-1.599-1.599-1.599v0h-0.533v-13.295l3.028-2.868c0.207 0.104 0.452 0.166 0.711 0.166 0.888 0 1.608-0.72 1.608-1.608s-0.72-1.608-1.608-1.608c-0.888 0-1.608 0.72-1.608 1.608 0 0.247 0.056 0.481 0.155 0.69l-0.004-0.010-2.281 2.162v-1.23c0-0.883-0.716-1.599-1.599-1.599v0h-21.325c-0.883 0-1.599 0.716-1.599 1.599v0 15.993h-0.533c-0.883 0-1.599 0.716-1.599 1.599v0 2.132c0 0.883 0.716 1.599 1.599 1.599v0zM30.387 4.837c0.294 0 0.533 0.239 0.533 0.533s-0.239 0.533-0.533 0.533v0c-0.294 0-0.533-0.239-0.533-0.533s0.239-0.533 0.533-0.533v0zM3.198 6.969c0-0.294 0.239-0.533 0.533-0.533h21.325c0.294 0 0.533 0.239 0.533 0.533v2.239l-1.066 1.013v-2.185c0-0.295-0.239-0.534-0.534-0.534h-19.191c-0.294 0-0.534 0.239-0.534 0.533v13.328c0 0.294 0.239 0.533 0.534 0.533h19.191c0.295 0 0.534-0.239 0.534-0.533v-9.675l1.066-1.010v12.285h-22.391v-15.992zM7.997 13.9c-0.001 0-0.003 0-0.005 0-0.883 0-1.599 0.716-1.599 1.599s0.716 1.599 1.599 1.599c0.432 0 0.825-0.172 1.112-0.45l-0 0 1.853 0.93c0.215 0.107 0.476 0.057 0.636-0.123l3.939-4.432 3.872 2.902c0.208 0.155 0.498 0.139 0.686-0.039l3.365-3.188v8.132h-18.125v-12.262h18.125v2.661l-3.772 3.572-3.904-2.927c-0.088-0.067-0.2-0.107-0.32-0.107-0.158 0-0.3 0.069-0.398 0.178l-0 0.001-3.993 4.493-1.493-0.747c0.011-0.064 0.017-0.128 0.020-0.193 0-0.883-0.716-1.599-1.599-1.599v0zM8.53 15.499c0 0.294-0.239 0.533-0.533 0.533s-0.533-0.239-0.533-0.533v0c0-0.294 0.239-0.533 0.533-0.533s0.533 0.239 0.533 0.533v0zM11.728 24.029h5.331v0.533c0 0.294-0.238 0.533-0.533 0.533h-4.265c-0.294 0-0.533-0.239-0.533-0.533v0-0.533zM1.067 24.562c0-0.294 0.238-0.533 0.533-0.533h9.063v0.533c0 0.883 0.716 1.599 1.599 1.599v0h4.265c0.883 0 1.599-0.716 1.599-1.599v0-0.533h9.063c0.294 0 0.533 0.239 0.533 0.533v2.132c0 0.294-0.239 0.533-0.533 0.533h-25.589c-0 0-0 0-0 0-0.294 0-0.533-0.239-0.533-0.533 0 0 0 0 0 0v0-2.132z"></path>
</symbol>
<symbol id="envelope" viewBox="0 0 43 32">
<path d="M38.667 0h-34.667c-2.206 0-4 1.675-4 3.734v22.404c0 2.059 1.794 3.734 4 3.734h34.667c2.206 0 4-1.675 4-3.734v-22.404c0-2.059-1.794-3.734-4-3.734zM38.667 2.489c0.181 0 0.353 0.035 0.511 0.096l-17.844 14.437-17.844-14.437c0.158-0.061 0.33-0.096 0.511-0.096h34.667zM38.667 27.383h-34.667c-0.736 0-1.333-0.558-1.333-1.245v-20.922l17.793 14.395c0.251 0.203 0.563 0.304 0.874 0.304s0.622-0.101 0.874-0.304l17.793-14.395v20.922c0 0.687-0.598 1.245-1.333 1.245z"></path>
</symbol>
<symbol id="facebook" viewBox="0 0 18 32">
<path d="M13.329 5.313h2.921v-5.088c-0.504-0.069-2.237-0.225-4.256-0.225-4.212 0-7.097 2.649-7.097 7.519v4.481h-4.648v5.688h4.648v14.312h5.699v-14.311h4.46l0.708-5.688h-5.169v-3.919c0.001-1.644 0.444-2.769 2.735-2.769z"></path>
</symbol>
<symbol id="icon-send" viewBox="0 0 32 32">
<path fill="#fff" style="fill: var(--color4, #fff)" d="M32 0l-32 18 10.227 3.788 15.773-14.788-11.998 16.186 0.010 0.004-0.012-0.004v8.814l5.735-6.691 7.265 2.691 5-28z"></path>
</symbol>
<symbol id="instagram" viewBox="0 0 32 32">
<path d="M31.969 9.408c-0.075-1.7-0.35-2.869-0.744-3.882-0.406-1.075-1.032-2.038-1.851-2.838-0.8-0.813-1.769-1.444-2.832-1.844-1.019-0.394-2.182-0.669-3.882-0.744-1.713-0.081-2.257-0.1-6.601-0.1s-4.888 0.019-6.595 0.094c-1.7 0.075-2.869 0.35-3.882 0.744-1.075 0.406-2.038 1.031-2.838 1.85-0.813 0.8-1.444 1.769-1.844 2.832-0.394 1.019-0.669 2.182-0.744 3.882-0.081 1.713-0.1 2.257-0.1 6.601s0.019 4.888 0.094 6.595c0.075 1.7 0.35 2.869 0.744 3.882 0.406 1.075 1.038 2.038 1.85 2.838 0.8 0.813 1.769 1.444 2.832 1.844 1.019 0.394 2.182 0.669 3.882 0.744 1.706 0.075 2.25 0.094 6.595 0.094s4.888-0.019 6.595-0.094c1.7-0.075 2.869-0.35 3.882-0.744 2.151-0.832 3.851-2.532 4.682-4.682 0.394-1.019 0.669-2.182 0.744-3.882 0.075-1.707 0.094-2.251 0.094-6.595s-0.006-4.888-0.081-6.595zM29.087 22.473c-0.069 1.563-0.331 2.407-0.55 2.969-0.538 1.394-1.644 2.5-3.038 3.038-0.563 0.219-1.413 0.481-2.969 0.55-1.688 0.075-2.194 0.094-6.464 0.094s-4.782-0.019-6.464-0.094c-1.563-0.069-2.407-0.331-2.969-0.55-0.694-0.256-1.325-0.663-1.838-1.194-0.531-0.519-0.938-1.144-1.194-1.838-0.219-0.563-0.481-1.413-0.55-2.969-0.075-1.688-0.094-2.194-0.094-6.464s0.019-4.782 0.094-6.464c0.069-1.563 0.331-2.407 0.55-2.969 0.256-0.694 0.663-1.325 1.2-1.838 0.519-0.531 1.144-0.938 1.838-1.194 0.563-0.219 1.413-0.481 2.969-0.55 1.688-0.075 2.194-0.094 6.464-0.094 4.276 0 4.782 0.019 6.464 0.094 1.563 0.069 2.407 0.331 2.969 0.55 0.694 0.256 1.325 0.662 1.838 1.194 0.531 0.519 0.938 1.144 1.194 1.838 0.219 0.563 0.481 1.413 0.55 2.969 0.075 1.688 0.094 2.194 0.094 6.464s-0.019 4.77-0.094 6.458z"></path>
<path d="M16.059 7.783c-4.538 0-8.22 3.682-8.22 8.22s3.682 8.22 8.22 8.22c4.539 0 8.22-3.682 8.22-8.22s-3.682-8.22-8.22-8.22zM16.059 21.335c-2.944 0-5.332-2.388-5.332-5.332s2.388-5.332 5.332-5.332c2.944 0 5.332 2.388 5.332 5.332s-2.388 5.332-5.332 5.332z"></path>
<path d="M26.524 7.458c0 1.060-0.859 1.919-1.919 1.919s-1.919-0.859-1.919-1.919c0-1.060 0.859-1.919 1.919-1.919s1.919 0.859 1.919 1.919z"></path>
</symbol>
<symbol id="linkedin" viewBox="0 0 32 32">
<path d="M31.992 32v-0.001h0.008v-11.736c0-5.741-1.236-10.164-7.948-10.164-3.227 0-5.392 1.771-6.276 3.449h-0.093v-2.913h-6.364v21.364h6.627v-10.579c0-2.785 0.528-5.479 3.977-5.479 3.399 0 3.449 3.179 3.449 5.657v10.401h6.62z"></path>
<path d="M0.528 10.636h6.635v21.364h-6.635v-21.364z"></path>
<path d="M3.843 0c-2.121 0-3.843 1.721-3.843 3.843s1.721 3.879 3.843 3.879c2.121 0 3.843-1.757 3.843-3.879-0.001-2.121-1.723-3.843-3.843-3.843v0z"></path>
</symbol>
<symbol id="logo-1" viewBox="0 0 29 32">
<path d="M3.842 0l4.677 4.428h13.046v12.351l4.677 4.428v-21.206h-22.4z"></path>
<path d="M0.002 4.241v20.6h21.76v-8.188l-13.105-12.407-8.655-0.005zM17.617 21.828h-14.172v-13.855h1.002v12.917h13.17v0.938zM6.268 28.662l0.524-1.078h0.438l-0.764 1.437v0.838h-0.397v-0.838l-0.764-1.437h0.439l0.524 1.078zM8.515 29.329h-0.881l-0.184 0.53h-0.411l0.859-2.275h0.355l0.861 2.275h-0.413l-0.186-0.53zM7.745 29.010h0.659l-0.33-0.944-0.33 0.944zM10.073 29.244c0-0.105 0.029-0.202 0.086-0.289 0.058-0.089 0.17-0.193 0.339-0.314-0.069-0.083-0.131-0.176-0.182-0.276l-0.004-0.008c-0.031-0.066-0.050-0.144-0.052-0.226v-0c0-0.179 0.054-0.319 0.163-0.422s0.254-0.156 0.437-0.156c0.166 0 0.301 0.049 0.406 0.147 0.106 0.097 0.16 0.218 0.16 0.361 0 0.001 0 0.002 0 0.003 0 0.096-0.027 0.186-0.074 0.262l0.001-0.002c-0.063 0.095-0.142 0.174-0.233 0.236l-0.003 0.002-0.155 0.113 0.44 0.518c0.063-0.125 0.095-0.264 0.095-0.417h0.33c0 0.28-0.065 0.509-0.196 0.689l0.334 0.396h-0.44l-0.128-0.152c-0.154 0.115-0.348 0.183-0.558 0.183-0.008 0-0.017-0-0.025-0l0.001 0c-0.225 0-0.405-0.060-0.54-0.179-0.124-0.11-0.202-0.27-0.202-0.447 0-0.007 0-0.014 0-0.021l-0 0.001zM10.826 29.587c0.128 0 0.248-0.043 0.359-0.128l-0.497-0.586-0.049 0.035c-0.125 0.095-0.188 0.203-0.188 0.325 0 0.105 0.034 0.191 0.102 0.256 0.066 0.061 0.156 0.099 0.254 0.099 0.006 0 0.013-0 0.019-0l-0.001 0zM10.617 28.121c0 0.088 0.054 0.197 0.161 0.33l0.173-0.118 0.049-0.039c0.059-0.052 0.097-0.128 0.097-0.212 0-0.003-0-0.006-0-0.009v0c0-0.001 0-0.001 0-0.002 0-0.059-0.026-0.112-0.067-0.149l-0-0c-0.042-0.040-0.099-0.064-0.162-0.064-0.003 0-0.006 0-0.009 0h0c-0.003-0-0.006-0-0.010-0-0.066 0-0.126 0.029-0.167 0.075l-0 0c-0.041 0.048-0.066 0.111-0.066 0.179 0 0.003 0 0.007 0 0.010v-0zM14.75 29.118c-0.023 0.243-0.113 0.432-0.269 0.568s-0.364 0.204-0.623 0.204c-0.181 0-0.341-0.043-0.48-0.128-0.139-0.089-0.248-0.214-0.317-0.362l-0.002-0.005c-0.074-0.16-0.117-0.347-0.117-0.544 0-0.003 0-0.005 0-0.008v0-0.212c0-0.214 0.038-0.403 0.114-0.567 0.077-0.164 0.186-0.29 0.326-0.378 0.143-0.089 0.307-0.133 0.494-0.133 0.251 0 0.453 0.068 0.606 0.205s0.243 0.329 0.268 0.578h-0.394c-0.019-0.163-0.067-0.281-0.144-0.353-0.076-0.073-0.188-0.109-0.336-0.109-0.172 0-0.304 0.063-0.397 0.189-0.092 0.125-0.138 0.309-0.141 0.552v0.202c0 0.246 0.044 0.433 0.132 0.563s0.218 0.194 0.387 0.194c0.155 0 0.272-0.035 0.35-0.105s0.128-0.186 0.148-0.348h0.394zM16.92 28.78c0 0.223-0.038 0.419-0.115 0.588-0.077 0.168-0.188 0.297-0.332 0.388-0.143 0.090-0.307 0.134-0.494 0.134-0.184 0-0.349-0.045-0.493-0.134-0.146-0.094-0.261-0.225-0.332-0.38l-0.002-0.006c-0.075-0.163-0.119-0.354-0.119-0.555 0-0.008 0-0.015 0-0.023v0.001-0.128c0-0.222 0.038-0.418 0.117-0.588s0.19-0.3 0.333-0.389c0.144-0.091 0.308-0.136 0.493-0.136s0.35 0.045 0.493 0.134c0.143 0.089 0.255 0.217 0.333 0.384s0.118 0.362 0.118 0.584v0.126zM16.524 28.662c0-0.252-0.048-0.445-0.143-0.58-0.085-0.123-0.225-0.202-0.384-0.202-0.007 0-0.015 0-0.022 0.001l0.001-0c-0.005-0-0.011-0-0.016-0-0.159 0-0.299 0.079-0.384 0.2l-0.001 0.002c-0.096 0.133-0.145 0.323-0.147 0.567v0.131c0 0.25 0.049 0.444 0.146 0.58s0.233 0.205 0.406 0.205c0.175 0 0.31-0.067 0.403-0.2 0.095-0.133 0.142-0.328 0.142-0.584v-0.118z"></path>
</symbol>
<symbol id="logo-2" viewBox="0 0 25 32">
<path d="M10.449 1.806h0.084c0.156 0 0.324 0.015 0.49 0.030 0.734 0.052 1.463 0.162 2.18 0.329v-1.762c-0.652-0.172-1.42-0.299-2.207-0.357l-0.042-0.002c-0.254-0.020-0.57-0.035-0.889-0.043l-0.021-0h-0.263c-1.523 0.006-3.040 0.201-4.515 0.582-1.68 0.418-3.292 1.075-4.79 1.948v17.475c1.312-0.729 2.832-1.339 4.431-1.75l0.135-0.029c1.123-0.3 2.434-0.51 3.78-0.586l0.052-0.002h0.052c0.216-0.011 0.433-0.017 0.655-0.018v-1.791c-1.78 0.024-3.493 0.264-5.129 0.695l0.147-0.033c-0.603 0.157-1.185 0.326-1.731 0.513l-0.623 0.212v-13.626l0.266-0.128c1.89-0.918 4.096-1.513 6.424-1.649l0.047-0.002c0.008-0.001 0.018-0.001 0.028-0.001s0.020 0 0.029 0.001l-0.001-0c0.248-0.012 0.497-0.018 0.742-0.018h0.28c0.129 0.003 0.258 0.006 0.388 0.014z"></path>
<path d="M14.839 3.651c-0.005 0-0.011 0-0.016 0-0.915 0-1.811-0.077-2.684-0.225l0.094 0.013c-0.277-0.047-0.55-0.103-0.814-0.164v17.275c1.12 0.277 2.271 0.412 3.425 0.404 1.607-0.007 3.162-0.218 4.643-0.61l-0.128 0.029c1.817-0.461 3.412-1.129 4.877-1.995l-0.085 0.047v-17.163c-1.312 0.728-2.831 1.338-4.429 1.751l-0.136 0.030c-1.551 0.399-3.145 0.603-4.747 0.609zM21.746 3.95l0.623-0.209v13.63l-0.266 0.129c-0.903 0.443-1.963 0.834-3.066 1.118l-0.119 0.026c-1.331 0.345-2.699 0.521-4.074 0.527-0.411 0-0.818-0.017-1.214-0.052l-0.426-0.038v-14.017l0.497 0.033c0.361 0.023 0.735 0.034 1.141 0.034 1.841-0.007 3.622-0.248 5.32-0.696l-0.147 0.033c0.777-0.203 1.355-0.38 1.924-0.576l-0.193 0.058zM1.686 25.977c-0.167-0.173-0.401-0.281-0.661-0.281-0.011 0-0.022 0-0.033 0.001l0.002-0c-0.004-0-0.009-0-0.014-0-0.139 0-0.272 0.028-0.393 0.078l0.007-0.003c-0.237 0.095-0.42 0.28-0.51 0.512l-0.002 0.006c-0.049 0.123-0.074 0.254-0.072 0.386v2.335c-0.006 0.164 0.026 0.328 0.092 0.479 0.055 0.12 0.135 0.226 0.234 0.313 0.093 0.078 0.203 0.135 0.32 0.166 0.114 0.031 0.231 0.048 0.349 0.048 0.13 0.001 0.258-0.026 0.377-0.081 0.351-0.156 0.591-0.5 0.591-0.902v-0.261h-0.61v0.208c0 0.004 0 0.008 0 0.013 0 0.070-0.013 0.137-0.038 0.199l0.001-0.004c-0.021 0.052-0.051 0.095-0.089 0.132l-0 0c-0.070 0.054-0.159 0.088-0.255 0.089h-0c-0.011 0.001-0.023 0.002-0.036 0.002-0.103 0-0.194-0.050-0.25-0.127l-0.001-0.001c-0.051-0.082-0.082-0.182-0.082-0.289 0-0.008 0-0.016 0.001-0.024l-0 0.001v-2.177c-0.004-0.121 0.022-0.24 0.075-0.349 0.056-0.087 0.153-0.143 0.262-0.143 0.013 0 0.025 0.001 0.038 0.002l-0.001-0c0.003-0 0.007-0 0.012-0 0.107 0 0.201 0.052 0.26 0.131l0.001 0.001c0.063 0.082 0.102 0.187 0.102 0.301 0 0.004-0 0.009-0 0.013v-0.001 0.202h0.604v-0.238c0-0.003 0-0.007 0-0.011 0-0.143-0.027-0.28-0.077-0.405l0.003 0.007c-0.048-0.128-0.117-0.237-0.205-0.329l0 0zM5.312 25.951c-0.186-0.158-0.429-0.255-0.694-0.257h-0c-0.124 0-0.247 0.023-0.364 0.066-0.252 0.090-0.45 0.276-0.556 0.512l-0.002 0.006c-0.062 0.142-0.092 0.297-0.089 0.452v2.239c-0.004 0.158 0.026 0.314 0.089 0.458 0.055 0.121 0.136 0.228 0.237 0.313 0.093 0.086 0.203 0.154 0.322 0.197 0.117 0.043 0.24 0.065 0.364 0.066 0.267-0 0.51-0.1 0.696-0.264l-0.001 0.001c0.097-0.087 0.175-0.194 0.23-0.313 0.063-0.144 0.093-0.301 0.089-0.458v-2.239c0-0.006 0-0.014 0-0.021 0-0.156-0.033-0.304-0.092-0.438l0.003 0.007c-0.057-0.128-0.135-0.237-0.23-0.327l-0-0zM5.027 28.969c0.001 0.010 0.001 0.022 0.001 0.034 0 0.114-0.047 0.217-0.123 0.29l-0 0c-0.077 0.065-0.178 0.104-0.287 0.104s-0.21-0.039-0.288-0.105l0.001 0.001c-0.076-0.073-0.123-0.175-0.123-0.289 0-0.012 0.001-0.025 0.002-0.037l-0 0.002v-2.239c-0.001-0.010-0.001-0.022-0.001-0.034 0-0.114 0.047-0.216 0.123-0.289l0-0c0.077-0.065 0.178-0.104 0.287-0.104s0.21 0.039 0.288 0.105l-0.001-0.001c0.076 0.073 0.123 0.176 0.123 0.289 0 0.012-0.001 0.024-0.002 0.036l0-0.002v2.24zM10.074 29.97v-4.24h-0.586l-0.77 2.244h-0.011l-0.777-2.244h-0.581v4.239h0.606v-2.578h0.011l0.593 1.823h0.302l0.598-1.823h0.011v2.578h0.605zM13.514 26.027c-0.093-0.105-0.211-0.185-0.342-0.232-0.124-0.042-0.267-0.066-0.416-0.066-0.008 0-0.016 0-0.024 0l0.001-0h-0.9v4.24h0.604v-1.656h0.311c0.188 0.009 0.375-0.031 0.545-0.116 0.139-0.078 0.251-0.188 0.329-0.32l0.002-0.004c0.070-0.113 0.117-0.238 0.138-0.369 0.021-0.133 0.033-0.287 0.033-0.444 0-0.013-0-0.027-0-0.040l0 0.002c0.006-0.203-0.014-0.407-0.059-0.606-0.043-0.153-0.12-0.284-0.223-0.39l0 0zM13.203 27.32c-0.003 0.081-0.023 0.157-0.057 0.224l0.001-0.003c-0.035 0.065-0.089 0.116-0.154 0.147l-0.002 0.001c-0.075 0.034-0.162 0.054-0.254 0.054-0.011 0-0.022-0-0.033-0.001l0.002 0h-0.275v-1.441h0.311c0.009-0 0.019-0.001 0.029-0.001 0.088 0 0.172 0.020 0.247 0.055l-0.004-0.002c0.062 0.036 0.111 0.090 0.141 0.154l0.001 0.002c0.033 0.074 0.051 0.155 0.053 0.236v0.282c0 0.098 0.006 0.201 0 0.291h-0.006zM16.375 25.73h-0.495l-0.934 4.24h0.604l0.177-0.911h0.823l0.178 0.911h0.604l-0.958-4.24zM15.818 28.481l0.297-1.537h0.011l0.295 1.537h-0.604zM20.279 28.283h-0.011l-0.913-2.554h-0.58v4.24h0.604v-2.55h0.012l0.923 2.549h0.569v-4.239h-0.604v2.554zM23.97 25.73l-0.486 1.686h-0.012l-0.486-1.686h-0.639l0.83 2.448v1.791h0.604v-1.791l0.83-2.447h-0.64zM0.001 31.167h0.291v0.817h0.198v-0.817h0.289v-0.167h-0.778v0.168zM2.449 30.999l-0.382 0.985h0.21l0.081-0.224h0.392l0.084 0.224h0.215l-0.391-0.985h-0.21zM2.418 31.594l0.134-0.365 0.134 0.365h-0.268zM4.868 31.62h0.228v0.127c-0.063 0.051-0.145 0.082-0.234 0.083h-0c-0.004 0-0.009 0-0.014 0-0.079 0-0.149-0.037-0.195-0.094l-0-0c-0.046-0.065-0.073-0.147-0.073-0.234 0-0.008 0-0.016 0.001-0.023l-0 0.001c0-0.219 0.095-0.329 0.283-0.329 0.006-0.001 0.014-0.001 0.021-0.001 0.097 0 0.178 0.067 0.201 0.157l0 0.001 0.194-0.038c-0.042-0.192-0.18-0.289-0.417-0.289-0.004-0-0.008-0-0.013-0-0.127 0-0.244 0.048-0.331 0.127l0-0c-0.088 0.087-0.143 0.208-0.143 0.342 0 0.013 0 0.026 0.002 0.038l-0-0.002c-0 0.007-0 0.015-0 0.023 0 0.132 0.048 0.254 0.127 0.347l-0.001-0.001c0.087 0.090 0.209 0.146 0.343 0.146 0.011 0 0.021-0 0.032-0.001l-0.001 0c0.005 0 0.010 0 0.016 0 0.155 0 0.296-0.060 0.402-0.157l-0 0v-0.388h-0.426v0.166zM7.338 30.999h-0.198v0.985h0.689v-0.167h-0.49v-0.817zM9.428 30.999h-0.199v0.985h0.199v-0.985zM11.47 31.656l-0.403-0.657h-0.193v0.985h0.185v-0.643l0.396 0.643h0.198v-0.985h-0.182v0.658zM13.317 31.549h0.49v-0.167h-0.49v-0.215h0.527v-0.168h-0.727v0.985h0.747v-0.167h-0.548v-0.266zM17.794 31.387h-0.388v-0.388h-0.198v0.984h0.198v-0.431h0.388v0.431h0.198v-0.985h-0.197v0.388zM19.651 31.549h0.492v-0.167h-0.492v-0.215h0.529v-0.168h-0.726v0.985h0.746v-0.167h-0.548v-0.266zM22.17 31.55c0.172-0.027 0.258-0.118 0.258-0.274 0.001-0.008 0.002-0.018 0.002-0.028 0-0.078-0.038-0.148-0.097-0.191l-0.001-0c-0.073-0.037-0.159-0.059-0.25-0.059-0.014 0-0.027 0-0.040 0.001l0.002-0h-0.417v0.984h0.197v-0.412h0.039c0.005-0 0.010-0 0.016-0 0.039 0 0.076 0.008 0.109 0.023l-0.002-0.001c0.029 0.018 0.053 0.042 0.070 0.072l0.215 0.313h0.236l-0.119-0.192c-0.054-0.096-0.128-0.175-0.216-0.235l-0.002-0.002zM21.971 31.413h-0.146v-0.247h0.156c0.012-0.001 0.027-0.002 0.042-0.002 0.057 0 0.111 0.009 0.163 0.026l-0.004-0.001c0.027 0.024 0.044 0.058 0.044 0.096 0 0.022-0.006 0.043-0.016 0.061l0-0.001c-0.009 0.017-0.022 0.032-0.037 0.043l-0 0c-0.049 0.016-0.106 0.025-0.164 0.025-0.013 0-0.026-0-0.038-0.001l0.002 0zM24.069 31.549h0.49v-0.167h-0.49v-0.215h0.529v-0.168h-0.728v0.985h0.747v-0.167h-0.548v-0.266z"></path>
</symbol>
<symbol id="logo-3" viewBox="0 0 31 32">
<path d="M4.723 31.108c0.023 0.001 0.044 0.010 0.060 0.025v0l0.153 0.161c-0.119 0.13-0.266 0.234-0.431 0.304-0.194 0.077-0.401 0.115-0.61 0.109-0.009 0-0.020 0-0.031 0-0.196 0-0.383-0.038-0.554-0.106l0.010 0.004c-0.332-0.134-0.588-0.397-0.709-0.725l-0.003-0.009c-0.061-0.164-0.097-0.353-0.097-0.55 0-0.007 0-0.015 0-0.022v0.001c-0-0.007-0-0.015-0-0.023 0-0.198 0.038-0.387 0.108-0.56l-0.004 0.010c0.067-0.165 0.168-0.316 0.298-0.444 0.13-0.127 0.287-0.225 0.459-0.29 0.188-0.070 0.389-0.104 0.592-0.102 0.188-0.004 0.374 0.027 0.549 0.093 0.151 0.063 0.29 0.149 0.412 0.257l-0.129 0.171c-0.009 0.012-0.019 0.023-0.032 0.031l-0 0c-0.013 0.009-0.028 0.014-0.045 0.014-0.002 0-0.005-0-0.007-0l0 0c-0.021-0.002-0.039-0.008-0.056-0.019l0 0-0.069-0.045-0.096-0.059c-0.087-0.046-0.189-0.082-0.296-0.101l-0.006-0.001c-0.063-0.011-0.135-0.018-0.209-0.018-0.007 0-0.013 0-0.020 0h0.001c-0.005-0-0.010-0-0.016-0-0.147 0-0.288 0.028-0.417 0.079l0.008-0.003c-0.13 0.051-0.241 0.124-0.333 0.216l0-0c-0.095 0.099-0.169 0.216-0.216 0.342-0.054 0.145-0.080 0.298-0.079 0.453-0.002 0.156 0.025 0.313 0.079 0.46 0.046 0.126 0.119 0.242 0.212 0.341 0.088 0.093 0.196 0.165 0.318 0.212 0.125 0.049 0.259 0.074 0.394 0.073 0.078 0.001 0.156-0.004 0.234-0.015 0.127-0.015 0.247-0.057 0.354-0.122 0.054-0.034 0.104-0.071 0.151-0.113 0.019-0.018 0.045-0.029 0.073-0.030h0zM9.145 30.3c0.002 0.194-0.033 0.387-0.103 0.568-0.067 0.172-0.165 0.319-0.288 0.44l-0 0c-0.126 0.123-0.276 0.221-0.444 0.286l-0.009 0.003c-0.173 0.065-0.373 0.102-0.582 0.102s-0.409-0.037-0.594-0.106l0.012 0.004c-0.175-0.069-0.325-0.167-0.45-0.29l0 0c-0.123-0.123-0.222-0.271-0.288-0.436l-0.003-0.009c-0.065-0.169-0.103-0.364-0.103-0.568s0.038-0.399 0.107-0.579l-0.004 0.011c0.065-0.166 0.164-0.318 0.29-0.447 0.126-0.119 0.276-0.214 0.441-0.276l0.009-0.003c0.173-0.066 0.373-0.104 0.582-0.104s0.409 0.038 0.594 0.108l-0.012-0.004c0.17 0.066 0.324 0.164 0.452 0.29 0.127 0.127 0.224 0.275 0.289 0.439 0.071 0.182 0.106 0.376 0.104 0.571zM8.743 30.3c0-0.007 0-0.016 0-0.024 0-0.155-0.027-0.303-0.076-0.441l0.003 0.009c-0.087-0.256-0.278-0.457-0.522-0.554l-0.006-0.002c-0.126-0.047-0.271-0.075-0.423-0.075s-0.297 0.027-0.432 0.078l0.009-0.003c-0.251 0.099-0.443 0.299-0.528 0.55l-0.002 0.006c-0.097 0.298-0.097 0.616 0 0.913 0.087 0.256 0.279 0.457 0.524 0.552l0.006 0.002c0.273 0.097 0.573 0.097 0.846 0 0.124-0.048 0.234-0.121 0.324-0.214 0.092-0.1 0.162-0.216 0.205-0.341 0.052-0.147 0.076-0.301 0.073-0.456zM12.162 30.779l0.041 0.102c0.015-0.036 0.028-0.069 0.044-0.102 0.017-0.040 0.034-0.073 0.052-0.105l-0.003 0.005 0.978-1.694c0.019-0.030 0.036-0.048 0.056-0.053s0.043-0.009 0.066-0.009c0.005 0 0.010 0 0.015 0l-0.001-0h0.289v2.755h-0.342v-2.111c-0.001-0.014-0.001-0.031-0.001-0.048s0.001-0.033 0.002-0.050l-0 0.002-0.984 1.719c-0.013 0.026-0.033 0.048-0.057 0.062l-0.001 0c-0.023 0.014-0.052 0.022-0.082 0.022-0.001 0-0.002 0-0.002-0h-0.055c-0.030 0.001-0.060-0.007-0.084-0.022s-0.045-0.036-0.058-0.062l-0-0.001-1.012-1.73v2.213h-0.331v-2.75h0.289c0.004-0 0.009-0 0.014-0 0.024 0 0.046 0.003 0.068 0.010l-0.002-0c0.024 0.011 0.042 0.029 0.053 0.052l0 0.001 1 1.696c0.018 0.028 0.035 0.060 0.048 0.094l0.001 0.004zM15.844 30.642v1.032h-0.383v-2.751h0.854c0.010-0 0.021-0 0.033-0 0.158 0 0.311 0.022 0.456 0.063l-0.012-0.003c0.124 0.034 0.239 0.092 0.337 0.171 0.085 0.074 0.15 0.167 0.191 0.27 0.045 0.112 0.067 0.232 0.066 0.352 0.002 0.121-0.022 0.24-0.071 0.352-0.049 0.109-0.119 0.202-0.205 0.274l-0.001 0.001c-0.095 0.080-0.209 0.143-0.333 0.181l-0.007 0.002c-0.149 0.045-0.305 0.067-0.461 0.064l-0.463-0.007zM15.844 30.346h0.463c0.101 0.002 0.201-0.013 0.297-0.042 0.083-0.027 0.154-0.068 0.215-0.12l-0.001 0.001c0.056-0.049 0.1-0.11 0.129-0.178l0.001-0.003c0.029-0.066 0.046-0.144 0.046-0.225 0-0.003-0-0.005-0-0.008v0c0-0.008 0.001-0.018 0.001-0.028 0-0.071-0.015-0.138-0.041-0.199l0.001 0.003c-0.032-0.074-0.077-0.137-0.134-0.188l-0-0c-0.126-0.094-0.285-0.15-0.457-0.15-0.021 0-0.041 0.001-0.061 0.002l0.003-0h-0.463v1.134zM20.989 31.678h-0.302c-0.002 0-0.003 0-0.005 0-0.030 0-0.057-0.010-0.079-0.026l0 0c-0.021-0.017-0.038-0.038-0.049-0.063l-0-0.001-0.261-0.665h-1.307l-0.27 0.665c-0.011 0.025-0.027 0.046-0.047 0.061l-0 0c-0.022 0.017-0.051 0.028-0.081 0.028-0.002 0-0.003-0-0.005-0h-0.302l1.148-2.756h0.398l1.164 2.756zM19.094 30.654h1.080l-0.456-1.122c-0.030-0.070-0.060-0.157-0.083-0.245l-0.003-0.014-0.045 0.144c-0.015 0.049-0.029 0.088-0.045 0.126l0.003-0.009-0.452 1.119zM22.643 28.934c0.023 0.013 0.043 0.030 0.058 0.050l1.675 2.077v-2.139h0.342v2.756h-0.191c-0.001 0-0.003 0-0.005 0-0.027 0-0.052-0.006-0.074-0.017l0.001 0c-0.024-0.014-0.044-0.031-0.061-0.051l-0-0-1.674-2.075c0.002 0.031 0.002 0.063 0 0.095v2.049h-0.342v-2.757h0.203c0.024 0 0.047 0.004 0.068 0.013zM27.541 30.581v1.094h-0.383v-1.094l-1.058-1.66h0.342c0.002-0 0.005-0 0.007-0 0.028 0 0.054 0.009 0.075 0.024l-0-0c0.021 0.018 0.038 0.038 0.052 0.061l0.001 0.001 0.662 1.070c0.045 0.070 0.085 0.151 0.114 0.236l0.002 0.008 0.050-0.118c0.019-0.043 0.040-0.086 0.066-0.126l0.653-1.078c0.014-0.022 0.031-0.042 0.050-0.059l0-0c0.020-0.017 0.047-0.027 0.076-0.027 0.002 0 0.004 0 0.006 0h0.347l-1.061 1.667zM11.973 24.297c0.167 0.020 0.335 0.037 0.505 0.051 2.583-1.102 4.769-2.903 6.283-5.18s2.29-4.93 2.231-7.626l-2.847-2.712c0.189 0.894 0.297 1.922 0.297 2.974 0 2.015-0.396 3.938-1.115 5.695l0.036-0.1c-1.090 2.732-2.956 5.121-5.39 6.9z"></path>
<path d="M10.956 24.171l0.077 0.015c2.601-1.773 4.583-4.248 5.692-7.105 0.627-1.564 0.991-3.377 0.991-5.276 0-1.297-0.17-2.554-0.488-3.75l0.023 0.102-4.054-3.862c1.269 2.397 2.014 5.239 2.014 8.255 0 0.702-0.040 1.394-0.119 2.075l0.008-0.083c-0.396 3.519-1.833 6.858-4.143 9.63zM24.707 14.727c-0.689 2.962-2.362 5.633-4.771 7.617-0.665 0.553-1.406 1.066-2.191 1.511l-0.075 0.039c2.039-0.578 3.805-1.556 5.285-2.851l-0.016 0.013c1.465-1.282 2.625-2.875 3.381-4.68l0.031-0.084-1.645-1.565z"></path>
<path d="M24.063 14.29l-2.342-2.231c-0.053 2.681-0.866 5.162-2.23 7.25l0.032-0.053c-1.394 2.17-3.373 3.944-5.73 5.138h0.012c0.525 0 1.049-0.030 1.571-0.089 2.251-0.884 4.151-2.238 5.651-3.95l0.014-0.017c1.454-1.661 2.512-3.704 3.005-5.959l0.016-0.089zM11.295 2.665l-2.793-2.665c-2.497 0.919-4.644 2.535-6.161 4.637s-2.333 4.59-2.341 7.14c0.010 2.819 1.005 5.552 2.829 7.771s4.373 3.794 7.243 4.477c2.562-2.973 4.062-6.648 4.282-10.489s-0.851-7.649-3.059-10.871zM30.516 13.88c-0.010-3.343-1.408-6.548-3.89-8.911s-5.844-3.697-9.354-3.707c-1.622-0.002-3.229 0.284-4.742 0.841l17.102 16.293c0.559-1.335 0.884-2.886 0.884-4.513 0-0.001 0-0.001 0-0.002v0z"></path>
</symbol>
<symbol id="logo-4" viewBox="0 0 60 32">
<path d="M9.23 9.55h-0.002c-1.684 0-3.049 1.331-3.049 2.971v0.002c0 1.64 1.365 2.971 3.048 2.971h0.002c1.684 0 3.049-1.331 3.049-2.971v-0.002c0-1.64-1.365-2.97-3.049-2.97zM31.731 8.601c-0.005-2.28-0.936-4.463-2.59-6.075-1.651-1.611-3.893-2.519-6.231-2.524-2.339 0.004-4.581 0.912-6.236 2.523s-2.585 3.797-2.59 6.076v12.566s17.645-1.915 17.647-12.564v-0.002zM0 25.291c0.008 1.659 0.697 3.155 1.801 4.226l0.002 0.001c1.121 1.086 2.65 1.756 4.336 1.758h0c1.686-0.001 3.215-0.671 4.337-1.759l-0.002 0.002c1.106-1.071 1.795-2.567 1.804-4.224v-8.746s-12.279 1.335-12.279 8.743zM6.14 26.858c-0.001 0-0.002 0-0.002 0-0.331 0-0.639-0.098-0.897-0.267l0.006 0.004c-0.262-0.171-0.466-0.41-0.589-0.693l-0.004-0.010c-0.077-0.177-0.122-0.382-0.122-0.598 0-0.109 0.011-0.215 0.033-0.317l-0.002 0.010c0.062-0.304 0.215-0.583 0.439-0.802 0.22-0.213 0.5-0.365 0.814-0.427l0.010-0.002c0.312-0.061 0.635-0.030 0.929 0.089s0.545 0.319 0.722 0.577c0.17 0.244 0.271 0.546 0.271 0.872 0 0.216-0.045 0.422-0.125 0.609l0.004-0.010c-0.080 0.191-0.199 0.365-0.348 0.511s-0.327 0.262-0.522 0.341c-0.182 0.076-0.394 0.12-0.616 0.12-0 0-0.001 0-0.001 0h0v-0.006zM18.672 25.886h-1.256v1.297h-0.655v-3.173h2.067v0.53h-1.413v0.819h1.255v0.528zM21.816 25.668c0 0.313-0.055 0.586-0.166 0.822s-0.269 0.417-0.475 0.545c-0.194 0.121-0.43 0.192-0.682 0.192-0.009 0-0.017-0-0.026-0l0.001 0c-0.263 0-0.498-0.063-0.704-0.19-0.208-0.131-0.373-0.314-0.476-0.533l-0.003-0.008c-0.109-0.23-0.173-0.5-0.173-0.785 0-0.009 0-0.018 0-0.028l-0 0.001v-0.158c0-0.313 0.056-0.588 0.168-0.825 0.113-0.238 0.272-0.42 0.477-0.547 0.207-0.128 0.442-0.192 0.707-0.192s0.499 0.064 0.704 0.192c0.206 0.127 0.365 0.309 0.477 0.547 0.114 0.237 0.17 0.511 0.17 0.822v0.141zM21.153 25.524c0-0.333-0.060-0.586-0.179-0.759-0.106-0.157-0.284-0.26-0.485-0.26-0.009 0-0.018 0-0.027 0.001l0.001-0c-0.007-0-0.016-0.001-0.025-0.001-0.201 0-0.378 0.102-0.482 0.256l-0.001 0.002c-0.119 0.17-0.179 0.42-0.181 0.749v0.155c0 0.324 0.060 0.576 0.179 0.755s0.29 0.268 0.514 0.268c0.008 0 0.017 0.001 0.026 0.001 0.2 0 0.375-0.101 0.479-0.255l0.001-0.002c0.118-0.173 0.177-0.424 0.179-0.755v-0.155zM23.936 26.35c0-0.006 0-0.012 0-0.018 0-0.107-0.051-0.203-0.13-0.264l-0.001-0.001c-0.087-0.067-0.244-0.137-0.471-0.21-0.209-0.065-0.388-0.139-0.558-0.227l0.019 0.009c-0.36-0.195-0.54-0.457-0.54-0.787 0-0.171 0.048-0.324 0.144-0.458 0.098-0.135 0.236-0.24 0.417-0.316s0.385-0.113 0.61-0.113c0.227 0 0.429 0.042 0.607 0.124s0.314 0.197 0.412 0.347c0.099 0.15 0.149 0.32 0.149 0.511h-0.655c0-0.146-0.045-0.258-0.137-0.338-0.092-0.082-0.22-0.123-0.386-0.123-0.159 0-0.284 0.034-0.372 0.103-0.082 0.058-0.134 0.152-0.134 0.259 0 0.003 0 0.005 0 0.008v-0c0 0.103 0.052 0.189 0.156 0.259s0.258 0.135 0.46 0.196c0.372 0.112 0.643 0.251 0.813 0.417s0.255 0.372 0.255 0.618c0 0.275-0.104 0.491-0.312 0.647s-0.487 0.234-0.839 0.234c-0.244 0-0.466-0.045-0.667-0.133-0.189-0.080-0.344-0.207-0.458-0.365l-0.002-0.003c-0.099-0.147-0.157-0.328-0.157-0.522 0-0.006 0-0.013 0-0.019v0.001h0.656c0 0.35 0.209 0.525 0.628 0.525 0.156 0 0.277-0.031 0.364-0.094 0.080-0.057 0.131-0.149 0.131-0.254 0-0.004-0-0.009-0-0.013l0 0.001zM27.428 24.539h-0.973v2.644h-0.654v-2.644h-0.959v-0.53h2.586v0.53zM29.712 25.808h-1.255v0.85h1.474v0.525h-2.128v-3.173h2.124v0.53h-1.469v0.756h1.255v0.513zM31.489 26.021h-0.521v1.162h-0.655v-3.173h1.18c0.375 0 0.664 0.083 0.868 0.251s0.305 0.403 0.305 0.708c0 0.216-0.048 0.397-0.141 0.543-0.105 0.152-0.25 0.271-0.419 0.341l-0.006 0.002 0.687 1.297v0.030h-0.702l-0.595-1.162zM30.968 25.492h0.528c0.164 0 0.291-0.042 0.381-0.124 0.084-0.082 0.136-0.197 0.136-0.323 0-0.008-0-0.017-0.001-0.025l0 0.001c0-0.15-0.042-0.268-0.129-0.353-0.084-0.086-0.214-0.129-0.39-0.129h-0.525v0.953zM34.932 26.065v1.119h-0.654v-3.173h1.238c0.238 0 0.448 0.043 0.628 0.131 0.182 0.087 0.321 0.211 0.418 0.372s0.147 0.342 0.147 0.548c0 0.311-0.107 0.557-0.321 0.737-0.212 0.179-0.506 0.268-0.883 0.268h-0.573zM34.932 25.535h0.584c0.173 0 0.305-0.041 0.394-0.123 0.092-0.081 0.138-0.197 0.138-0.348 0-0.007 0.001-0.015 0.001-0.023 0-0.137-0.053-0.262-0.139-0.355l0 0c-0.092-0.096-0.218-0.145-0.38-0.149h-0.599v0.997zM39.070 25.808h-1.255v0.85h1.474v0.525h-2.128v-3.173h2.124v0.53h-1.47v0.756h1.256v0.513zM42.105 24.539h-0.973v2.644h-0.654v-2.644h-0.959v-0.53h2.586v0.53zM44.39 25.808h-1.256v0.85h1.474v0.525h-2.127v-3.173h2.123v0.53h-1.47v0.756h1.256v0.513zM46.167 26.021h-0.521v1.162h-0.655v-3.173h1.18c0.375 0 0.665 0.083 0.868 0.251s0.305 0.403 0.305 0.708c0 0.216-0.048 0.397-0.141 0.543-0.105 0.152-0.25 0.271-0.419 0.341l-0.006 0.002 0.687 1.297v0.030h-0.703l-0.595-1.162zM45.646 25.492h0.527c0.164 0 0.292-0.042 0.382-0.124 0.084-0.082 0.136-0.197 0.136-0.323 0-0.008-0-0.017-0.001-0.025l0 0.001c0-0.15-0.043-0.268-0.129-0.353-0.084-0.086-0.214-0.129-0.391-0.129h-0.525v0.953zM49.49 26.35c0-0.005 0-0.012 0-0.018 0-0.108-0.051-0.204-0.131-0.264l-0.001-0.001c-0.088-0.067-0.244-0.137-0.471-0.21-0.209-0.065-0.388-0.139-0.558-0.227l0.019 0.009c-0.36-0.195-0.54-0.457-0.54-0.787 0-0.171 0.048-0.324 0.144-0.458s0.236-0.24 0.417-0.316c0.182-0.075 0.385-0.113 0.61-0.113 0.227 0 0.429 0.042 0.606 0.124s0.315 0.197 0.412 0.347c0.099 0.15 0.149 0.32 0.149 0.511h-0.655c0-0.146-0.045-0.258-0.137-0.338-0.092-0.082-0.22-0.123-0.386-0.123-0.16 0-0.284 0.034-0.372 0.103-0.082 0.058-0.134 0.152-0.134 0.259 0 0.003 0 0.005 0 0.008v-0c0 0.103 0.052 0.189 0.156 0.259s0.258 0.135 0.46 0.196c0.372 0.112 0.643 0.251 0.813 0.417s0.255 0.372 0.255 0.618c0 0.275-0.104 0.491-0.312 0.647s-0.487 0.234-0.839 0.234c-0.244 0-0.466-0.045-0.667-0.133-0.188-0.080-0.344-0.207-0.458-0.365l-0.002-0.003c-0.099-0.147-0.157-0.328-0.157-0.522 0-0.006 0-0.013 0-0.019v0.001h0.656c0 0.35 0.208 0.525 0.627 0.525 0.156 0 0.278-0.031 0.365-0.094 0.079-0.057 0.13-0.149 0.13-0.253 0-0.005-0-0.009-0-0.014l0 0.001z"></path>
</symbol>
<symbol id="logo-5" viewBox="0 0 40 32">
<path d="M3.056 26.746c0.157 0.194 0.24 0.438 0.236 0.688 0.001 0.016 0.001 0.035 0.001 0.053 0 0.324-0.141 0.615-0.365 0.815l-0.001 0.001c-0.304 0.231-0.681 0.343-1.062 0.317h-1.865v-4.361h1.827c0.031-0.002 0.067-0.003 0.103-0.003 0.341 0 0.657 0.11 0.914 0.297l-0.004-0.003c0.218 0.184 0.355 0.458 0.355 0.763 0 0.018-0.001 0.037-0.002 0.055l0-0.003c0.011 0.24-0.065 0.477-0.212 0.667-0.142 0.173-0.338 0.293-0.556 0.34 0.247 0.046 0.471 0.177 0.631 0.373zM0.868 26.087h0.78c0.178 0.014 0.354-0.038 0.497-0.145 0.104-0.095 0.169-0.232 0.169-0.383 0-0.015-0.001-0.030-0.002-0.045l0 0.002c0.001-0.011 0.001-0.024 0.001-0.037 0-0.153-0.064-0.291-0.167-0.389l-0-0c-0.124-0.093-0.281-0.15-0.45-0.15-0.021 0-0.043 0.001-0.064 0.003l0.003-0h-0.767v1.144zM2.222 27.759c0.114-0.1 0.186-0.246 0.186-0.408 0-0.012-0-0.024-0.001-0.036l0 0.002c0.001-0.010 0.001-0.021 0.001-0.032 0-0.166-0.073-0.314-0.189-0.416l-0.001-0.001c-0.132-0.099-0.299-0.159-0.48-0.159-0.018 0-0.036 0.001-0.054 0.002l0.002-0h-0.818v1.199h0.829c0.187 0.011 0.372-0.042 0.524-0.151zM6.79 28.62l-1.016-1.704h-0.382v1.704h-0.874v-4.361h1.655c0.034-0.003 0.074-0.004 0.114-0.004 0.396 0 0.76 0.142 1.042 0.377l-0.003-0.002c0.245 0.251 0.397 0.595 0.397 0.974 0 0.313-0.103 0.601-0.277 0.834l0.003-0.004c-0.204 0.235-0.483 0.392-0.789 0.443l1.083 1.743h-0.951zM5.393 26.321h0.715c0.497 0 0.745-0.22 0.745-0.66 0.001-0.011 0.001-0.024 0.001-0.037 0-0.176-0.070-0.336-0.184-0.453l0 0c-0.133-0.112-0.306-0.18-0.496-0.18-0.024 0-0.047 0.001-0.070 0.003l0.003-0h-0.724l0.009 1.328zM11.568 27.742h-1.742l-0.308 0.878h-0.916l1.6-4.313h0.991l1.593 4.312h-0.916l-0.301-0.878zM11.335 27.082l-0.637-1.84-0.637 1.84h1.273zM17.551 28.62h-0.869l-1.945-2.965v2.965h-0.866v-4.361h0.866l1.945 2.982v-2.982h0.868v4.361zM22.503 27.576c-0.182 0.33-0.45 0.593-0.775 0.764l-0.010 0.005c-0.378 0.191-0.797 0.286-1.22 0.274h-1.546v-4.361h1.546c0.020-0.001 0.044-0.001 0.067-0.001 0.42 0 0.817 0.1 1.168 0.277l-0.015-0.007c0.332 0.168 0.606 0.433 0.785 0.761 0.171 0.333 0.272 0.727 0.272 1.144s-0.1 0.811-0.278 1.158l0.007-0.014zM21.51 27.472c0.239-0.278 0.384-0.642 0.384-1.041s-0.145-0.763-0.386-1.043l0.002 0.002c-0.264-0.232-0.612-0.374-0.993-0.374-0.033 0-0.065 0.001-0.098 0.003l0.004-0h-0.603v2.823h0.603c0.028 0.002 0.061 0.003 0.094 0.003 0.381 0 0.729-0.142 0.994-0.375l-0.002 0.001zM12.112 0.002s11.201 4.246 10.963 10.39v10.392s-11.193-4.249-10.96-10.392l-0.003-10.39zM33.055 18.352c2.005-1.402 4.428-2.346 7.050-2.628l0.068-0.006v-3.253c-2.995 1.181-5.437 3.227-7.082 5.827l-0.035 0.060z"></path>
<path d="M31.784 19.331c1.749-3.487 4.693-6.159 8.284-7.514l0.105-0.035v-9.374s-15.953 6.048-15.615 14.798v14.796s0.711-0.27 1.83-0.778c0-0.473 0-0.95 0.051-1.43 0.35-4.206 2.342-7.887 5.326-10.447l0.021-0.017z"></path>
<path d="M30.267 24.828c0.084-1.026 0.27-2.041 0.558-3.030-2.038 2.401-3.303 5.514-3.378 8.921l-0 0.016c1.299-0.625 2.304-1.166 3.286-1.741l-0.218 0.118c-0.191-0.908-0.3-1.952-0.3-3.021 0-0.445 0.019-0.885 0.056-1.32l-0.004 0.057zM30.902 24.881c-0.031 0.359-0.049 0.777-0.049 1.2 0 0.948 0.090 1.874 0.261 2.772l-0.015-0.092c4.358-2.619 9.255-6.665 9.067-11.553v-0.426c-3.246 0.375-6.107 1.789-8.298 3.894l0.005-0.005c-0.501 1.235-0.846 2.665-0.968 4.158l-0.003 0.052z"></path>
</symbol>
<symbol id="logo-6" viewBox="0 0 62 32">
<path d="M31.125 14.857c-0.251-0.36-0.401-0.806-0.401-1.288 0-0.050 0.002-0.101 0.005-0.15l-0 0.007v-2.075c0-0.637 0.131-1.12 0.394-1.45s0.715-0.495 1.356-0.494c0.602 0 1.030 0.141 1.282 0.422 0.276 0.359 0.41 0.798 0.378 1.241v0.487h-1.076v-0.494c0-0.019 0.001-0.041 0.001-0.064 0-0.148-0.012-0.293-0.034-0.435l0.002 0.016c-0.017-0.115-0.073-0.214-0.153-0.287l-0-0c-0.095-0.071-0.215-0.113-0.345-0.113-0.016 0-0.032 0.001-0.048 0.002l0.002-0c-0.014-0.001-0.029-0.002-0.045-0.002-0.137 0-0.264 0.045-0.367 0.121l0.002-0.001c-0.090 0.081-0.154 0.19-0.178 0.313l-0.001 0.004c-0.031 0.169-0.045 0.341-0.042 0.513v2.518c-0.017 0.243 0.031 0.486 0.138 0.707 0.055 0.075 0.128 0.134 0.212 0.171l0.003 0.001c0.063 0.027 0.136 0.044 0.213 0.044 0.023 0 0.045-0.001 0.067-0.004l-0.003 0c0.013 0.001 0.029 0.002 0.044 0.002 0.128 0 0.245-0.044 0.338-0.117l-0.001 0.001c0.084-0.079 0.142-0.184 0.16-0.303l0-0.003c0.026-0.167 0.037-0.336 0.034-0.504v-0.511h1.076v0.466c0.003 0.038 0.004 0.083 0.004 0.129 0 0.441-0.141 0.85-0.38 1.182l0.004-0.006c-0.247 0.308-0.669 0.462-1.288 0.462s-1.088-0.164-1.354-0.506zM35.61 14.878c-0.272-0.323-0.408-0.794-0.408-1.416v-2.183c0-0.616 0.136-1.082 0.408-1.399s0.726-0.474 1.364-0.473c0.633 0 1.085 0.158 1.358 0.473 0.271 0.317 0.41 0.783 0.41 1.399v2.183c0 0.616-0.139 1.089-0.415 1.414s-0.726 0.487-1.353 0.487c-0.626 0-1.090-0.164-1.364-0.485zM37.475 14.354c0.097-0.202 0.142-0.424 0.129-0.646v-2.672c0.001-0.021 0.002-0.047 0.002-0.072 0-0.204-0.048-0.397-0.133-0.569l0.003 0.007c-0.056-0.076-0.13-0.136-0.216-0.173l-0.003-0.001c-0.062-0.027-0.135-0.042-0.211-0.042-0.026 0-0.051 0.002-0.076 0.005l0.003-0c-0.022-0.003-0.047-0.005-0.073-0.005-0.077 0-0.15 0.016-0.216 0.044l0.004-0.001c-0.090 0.038-0.165 0.098-0.22 0.172l-0.001 0.001c-0.097 0.197-0.142 0.415-0.129 0.633v2.685c-0.014 0.223 0.031 0.444 0.129 0.646 0.063 0.067 0.138 0.121 0.223 0.158l0.004 0.002c0.082 0.036 0.177 0.057 0.277 0.057s0.195-0.021 0.281-0.059l-0.005 0.002c0.089-0.039 0.164-0.093 0.226-0.16l0-0v-0.013zM40.037 9.47h1.16l0.872 4.028 0.892-4.028h1.128l0.113 5.813h-0.833l-0.089-4.040-0.861 4.040h-0.669l-0.892-4.054-0.083 4.054h-0.843l0.104-5.812zM45.502 9.47h1.806c1.041 0 1.561 0.55 1.561 1.651 0 1.054-0.548 1.58-1.643 1.579h-0.616v2.583h-1.114l0.007-5.812zM47.045 11.954c0.11 0.014 0.222 0.004 0.328-0.028s0.203-0.085 0.285-0.155c0.128-0.197 0.184-0.427 0.161-0.657 0.001-0.019 0.001-0.042 0.001-0.064 0-0.164-0.020-0.324-0.057-0.477l0.003 0.014c-0.017-0.062-0.045-0.115-0.083-0.161l0.001 0.001c-0.039-0.047-0.085-0.086-0.138-0.116l-0.002-0.001c-0.129-0.059-0.279-0.094-0.438-0.094-0.021 0-0.042 0.001-0.063 0.002l0.003-0h-0.433v1.736h0.433zM50.476 9.47h1.197l1.229 5.813h-1.039l-0.243-1.341h-1.068l-0.25 1.341h-1.054l1.229-5.812zM51.5 13.27l-0.417-2.44-0.417 2.44h0.834zM53.894 9.47h0.781l1.494 3.316v-3.316h0.925v5.812h-0.742l-1.503-3.462v3.462h-0.957l0.002-5.812zM59.262 13.067l-1.242-3.588h1.046l0.758 2.305 0.711-2.305h1.023l-1.226 3.588v2.216h-1.070v-2.216zM32.847 17.824v0.304h-0.91v2.362h-0.381v-2.362h-0.914v-0.304h2.205zM35.699 20.49h-0.294c-0.002 0-0.005 0-0.008 0-0.028 0-0.054-0.010-0.075-0.026l0 0c-0.022-0.015-0.038-0.036-0.048-0.060l-0-0.001-0.263-0.633h-1.262l-0.263 0.633c-0.008 0.028-0.022 0.052-0.040 0.072l0-0c-0.021 0.016-0.047 0.025-0.076 0.025-0.002 0-0.005-0-0.007-0h-0.294l1.115-2.666h0.388l1.128 2.655zM33.852 19.5h1.053l-0.445-1.085c-0.028-0.067-0.057-0.15-0.080-0.236l-0.003-0.014-0.042 0.141-0.040 0.111-0.442 1.083zM37.621 20.229c0.070 0.003 0.139 0.003 0.209 0 0.061-0.006 0.12-0.017 0.179-0.032 0.064-0.015 0.117-0.032 0.169-0.052l-0.009 0.003c0.049-0.019 0.098-0.042 0.15-0.065v-0.6h-0.446c-0.002 0-0.003 0-0.005 0-0.021 0-0.041-0.008-0.055-0.021l0 0c-0.014-0.011-0.022-0.028-0.022-0.047 0-0.001 0-0.001 0-0.002v0-0.205h0.865v1.022c-0.135 0.092-0.291 0.166-0.459 0.214l-0.012 0.003c-0.079 0.023-0.173 0.043-0.27 0.055l-0.009 0.001c-0.096 0.011-0.208 0.017-0.321 0.017-0.001 0-0.003 0-0.004 0h0c-0.004 0-0.008 0-0.013 0-0.197 0-0.386-0.037-0.56-0.103l0.011 0.004c-0.173-0.067-0.321-0.161-0.446-0.279l0.001 0.001c-0.12-0.117-0.218-0.258-0.285-0.414l-0.003-0.008c-0.065-0.158-0.102-0.342-0.102-0.534 0-0.007 0-0.013 0-0.020v0.001c-0-0.006-0-0.012-0-0.019 0-0.194 0.037-0.379 0.104-0.549l-0.004 0.010c0.064-0.158 0.162-0.301 0.287-0.422 0.127-0.12 0.279-0.214 0.446-0.277 0.191-0.068 0.394-0.102 0.598-0.099 0.104 0 0.207 0.007 0.31 0.023 0.090 0.014 0.179 0.036 0.264 0.067 0.079 0.028 0.153 0.063 0.223 0.106 0.069 0.042 0.134 0.088 0.195 0.139l-0.108 0.165c-0.009 0.015-0.021 0.027-0.036 0.036l-0 0c-0.015 0.009-0.032 0.014-0.051 0.014h-0c-0.026-0.001-0.049-0.008-0.069-0.021l0.001 0c-0.044-0.023-0.080-0.043-0.114-0.066l0.005 0.003c-0.042-0.026-0.092-0.050-0.143-0.070l-0.007-0.002c-0.057-0.023-0.126-0.043-0.197-0.058l-0.008-0.001c-0.081-0.015-0.173-0.023-0.268-0.023-0.005 0-0.011 0-0.016 0h0.001c-0.004-0-0.009-0-0.013-0-0.15 0-0.293 0.027-0.425 0.077l0.008-0.003c-0.128 0.049-0.237 0.121-0.328 0.211l0-0c-0.093 0.096-0.163 0.209-0.207 0.332-0.047 0.132-0.075 0.285-0.075 0.444s0.027 0.312 0.078 0.454l-0.003-0.009c0.049 0.125 0.125 0.24 0.223 0.335 0.092 0.092 0.202 0.163 0.326 0.212 0.142 0.046 0.292 0.064 0.442 0.053zM41.174 20.186h1.217v0.304h-1.59v-2.666h0.381l-0.009 2.362zM43.659 20.49h-0.381v-2.665h0.381v2.666zM45.076 17.837c0.022 0.013 0.042 0.029 0.058 0.049l1.63 2.010c-0.001-0.014-0.002-0.031-0.002-0.048s0.001-0.033 0.002-0.050l-0 0.002v-1.986h0.333v2.676h-0.192c-0.004 0-0.009 0.001-0.013 0.001-0.025 0-0.049-0.006-0.071-0.016l0.001 0c-0.023-0.014-0.043-0.031-0.060-0.050l-0-0-1.628-2.007v2.072h-0.319v-2.665h0.198c0.022 0 0.043 0.004 0.063 0.013zM49.903 17.824v0.294h-1.351v0.88h1.095v0.282h-1.095v0.91h1.351v0.294h-1.743v-2.66h1.743zM9.95 1.361l16.93 4.551v15.947l-16.928-4.548v-15.949zM8.865 0.002v18.082l19.099 5.136v-18.081l-19.099-5.137z"></path>
<path d="M19.101 31.614l-19.101-5.14v-18.081l19.101 5.138v18.083z"></path>
<path d="M9.182 1.156l16.708 4.493-7.106 6.729-16.71-4.496 7.108-6.727zM8.865 0.002l-8.865 8.392 19.101 5.138 8.863-8.392-19.099-5.138zM20.176 30.597l7.788-7.374-7.788-2.096v9.47z"></path>
</symbol>
<symbol id="smartphone" viewBox="0 0 21 32">
<path d="M18.133 0h-14.933c-1.765 0-3.2 1.34-3.2 2.987v25.889c0 1.647 1.435 2.987 3.2 2.987h14.933c1.765 0 3.2-1.34 3.2-2.987v-25.889c0-1.647-1.435-2.987-3.2-2.987zM3.2 1.991h14.933c0.589 0 1.067 0.446 1.067 0.996v20.91h-17.067v-20.91c0-0.549 0.478-0.996 1.067-0.996zM18.133 29.872h-14.933c-0.589 0-1.067-0.446-1.067-0.996v-2.987h17.067v2.987c0 0.55-0.478 0.996-1.067 0.996z"></path>
<path d="M5.021 27.176c0.417 0.389 0.417 1.020 0 1.409s-1.092 0.389-1.508 0c-0.417-0.389-0.417-1.020 0-1.409s1.092-0.389 1.508 0z"></path>
</symbol>
<symbol id="twitter" viewBox="0 0 32 32">
<path d="M32 6.078c-1.19 0.522-2.458 0.868-3.78 1.036 1.36-0.812 2.398-2.088 2.886-3.626-1.268 0.756-2.668 1.29-4.16 1.588-1.204-1.282-2.92-2.076-4.792-2.076-3.632 0-6.556 2.948-6.556 6.562 0 0.52 0.044 1.020 0.152 1.496-5.454-0.266-10.28-2.88-13.522-6.862-0.566 0.982-0.898 2.106-0.898 3.316 0 2.272 1.17 4.286 2.914 5.452-1.054-0.020-2.088-0.326-2.964-0.808 0 0.020 0 0.046 0 0.072 0 3.188 2.274 5.836 5.256 6.446-0.534 0.146-1.116 0.216-1.72 0.216-0.42 0-0.844-0.024-1.242-0.112 0.85 2.598 3.262 4.508 6.13 4.57-2.232 1.746-5.066 2.798-8.134 2.798-0.538 0-1.054-0.024-1.57-0.090 2.906 1.874 6.35 2.944 10.064 2.944 12.072 0 18.672-10 18.672-18.668 0-0.29-0.010-0.57-0.024-0.848 1.302-0.924 2.396-2.078 3.288-3.406z"></path>
</symbol>
<symbol id="lose" viewBox="0 0 32 32">
<path d="M32.011 3.224l-3.224-3.224-12.781 12.781-12.781-12.781-3.224 3.224 12.781 12.781-12.781 12.781 3.224 3.224 12.781-12.781 12.781 12.781 3.224-3.224-12.781-12.781 12.781-12.781z"></path>
</symbol>
<symbol id="tel" viewBox="0 0 32 32">
<path d="M27.429 20.86l-4.203-0.48c-0.116-0.014-0.25-0.023-0.386-0.023-0.909 0-1.733 0.369-2.329 0.965l-3.046 3.046c-4.719-2.436-8.469-6.187-10.839-10.768l-0.065-0.139 3.064-3.057c0.597-0.596 0.967-1.42 0.967-2.331 0-0.135-0.008-0.268-0.024-0.399l0.002 0.016-0.48-4.171c-0.199-1.656-1.595-2.927-3.288-2.927-0.001 0-0.003 0-0.004 0h-2.865c-1.87-0.002-3.425 1.553-3.311 3.423 0.878 14.13 12.178 25.414 26.295 26.292 1.868 0.114 3.425-1.44 3.425-3.311v-2.863c0-0.005 0-0.010 0-0.016 0-1.682-1.266-3.068-2.898-3.257l-0.015-0.001z"></path>
</symbol>
<symbol id="name" viewBox="0 0 32 32">
<path d="M16.005 16.005c4.42 0 8.003-3.583 8.003-8.003s-3.583-8.003-8.003-8.003v0c-4.42 0-8.003 3.583-8.003 8.003s3.583 8.003 8.003 8.003v0zM16.005 20.007c-5.34 0-16.005 2.681-16.005 8.003v2.001c0 1.099 0.902 2.001 2.001 2.001h28.009c1.099 0 2.001-0.902 2.001-2.001v-2.001c0-5.322-10.665-8.003-16.005-8.003z"></path>
</symbol>
<symbol id="mail" viewBox="0 0 43 32">
<path d="M37.346 0h-32.011c-2.201 0-3.983 1.801-3.983 4.001l-0.019 24.008c0 2.201 1.801 4.001 4.001 4.001h32.011c2.201 0 4.001-1.801 4.001-4.001v-24.008c0-2.201-1.801-4.001-4.001-4.001zM36.546 8.504l-14.143 8.84c-0.302 0.188-0.668 0.3-1.060 0.3s-0.759-0.112-1.069-0.305l0.009 0.005-14.146-8.843c-0.504-0.301-0.836-0.843-0.836-1.463 0-0.938 0.761-1.699 1.699-1.699 0.349 0 0.673 0.105 0.943 0.286l-0.006-0.004 13.404 8.384 13.405-8.384c0.264-0.176 0.588-0.282 0.937-0.282 0.938 0 1.699 0.761 1.699 1.699 0 0.62-0.332 1.162-0.828 1.459l-0.008 0.004z"></path>
</symbol>
<symbol id="cross" viewBox="0 0 32 32">
<path d="M31.45 3.167l-3.167-3.167-12.558 12.557-12.557-12.557-3.167 3.167 12.557 12.557-12.557 12.558 3.167 3.167 12.557-12.558 12.558 12.558 3.167-3.167-12.558-12.558 12.558-12.557z"></path>
</symbol>
<symbol id="menu" viewBox="0 0 48 32">
<path d="M0 5.336v-5.336h48.016v5.336h-48.016zM0 18.672h48.016v-5.334h-48.016v5.334zM0 32.011h48.016v-5.336h-48.016v5.336z"></path>
</symbol>
</defs>
</svg>
